<mxfile host="app.diagrams.net" modified="2023-01-25T03:15:30.917Z" agent="5.0 (Windows)" etag="qTWYv5I85UNYskx4ZmZI" version="20.8.10" type="github">
  <diagram id="JR_F6HmcVY9lUkStWmIO" name="Page-1">
    <mxGraphModel dx="880" dy="470" grid="1" gridSize="10" guides="1" tooltips="1" connect="1" arrows="1" fold="1" page="1" pageScale="1" pageWidth="1169" pageHeight="827" math="0" shadow="0">
      <root>
        <mxCell id="0" />
        <mxCell id="1" parent="0" />
        <mxCell id="i72SBvzSJJMvw3akRcvv-4" value="" style="edgeStyle=orthogonalEdgeStyle;rounded=0;orthogonalLoop=1;jettySize=auto;html=1;labelBackgroundColor=none;strokeColor=#457B9D;fontColor=default;" edge="1" parent="1" source="9x-lMi8Y2mgQQTu_pZcD-2" target="i72SBvzSJJMvw3akRcvv-3">
          <mxGeometry relative="1" as="geometry" />
        </mxCell>
        <mxCell id="9x-lMi8Y2mgQQTu_pZcD-2" value="Start" style="ellipse;whiteSpace=wrap;html=1;labelBackgroundColor=none;fillColor=#A8DADC;strokeColor=#457B9D;fontColor=#1D3557;" parent="1" vertex="1">
          <mxGeometry x="255" y="100" width="90" height="30" as="geometry" />
        </mxCell>
        <mxCell id="i72SBvzSJJMvw3akRcvv-6" value="" style="edgeStyle=orthogonalEdgeStyle;rounded=0;orthogonalLoop=1;jettySize=auto;html=1;labelBackgroundColor=none;strokeColor=#457B9D;fontColor=default;" edge="1" parent="1" source="i72SBvzSJJMvw3akRcvv-3" target="i72SBvzSJJMvw3akRcvv-5">
          <mxGeometry relative="1" as="geometry" />
        </mxCell>
        <mxCell id="i72SBvzSJJMvw3akRcvv-3" value="&lt;div&gt;Data Collection&lt;/div&gt;&lt;div&gt;Search Paper With Publish or Perish&lt;br&gt;&lt;/div&gt;" style="whiteSpace=wrap;html=1;labelBackgroundColor=none;fillColor=#A8DADC;strokeColor=#457B9D;fontColor=#1D3557;" vertex="1" parent="1">
          <mxGeometry x="240" y="160" width="120" height="60" as="geometry" />
        </mxCell>
        <mxCell id="i72SBvzSJJMvw3akRcvv-11" value="Yes" style="edgeStyle=orthogonalEdgeStyle;rounded=0;orthogonalLoop=1;jettySize=auto;html=1;labelBackgroundColor=none;strokeColor=#457B9D;fontColor=default;" edge="1" parent="1" source="i72SBvzSJJMvw3akRcvv-5" target="i72SBvzSJJMvw3akRcvv-10">
          <mxGeometry relative="1" as="geometry" />
        </mxCell>
        <mxCell id="i72SBvzSJJMvw3akRcvv-5" value="Get Data" style="rhombus;whiteSpace=wrap;html=1;labelBackgroundColor=none;fillColor=#A8DADC;strokeColor=#457B9D;fontColor=#1D3557;" vertex="1" parent="1">
          <mxGeometry x="260" y="250" width="80" height="70" as="geometry" />
        </mxCell>
        <mxCell id="i72SBvzSJJMvw3akRcvv-9" value="No" style="edgeStyle=elbowEdgeStyle;elbow=vertical;endArrow=classic;html=1;curved=0;rounded=0;endSize=8;startSize=8;exitX=1;exitY=0.5;exitDx=0;exitDy=0;entryX=1;entryY=0.5;entryDx=0;entryDy=0;labelBackgroundColor=none;strokeColor=#457B9D;fontColor=default;" edge="1" parent="1" source="i72SBvzSJJMvw3akRcvv-5" target="i72SBvzSJJMvw3akRcvv-3">
          <mxGeometry width="50" height="50" relative="1" as="geometry">
            <mxPoint x="330" y="260" as="sourcePoint" />
            <mxPoint x="380" y="210" as="targetPoint" />
            <Array as="points">
              <mxPoint x="410" y="240" />
            </Array>
          </mxGeometry>
        </mxCell>
        <mxCell id="i72SBvzSJJMvw3akRcvv-13" value="" style="edgeStyle=orthogonalEdgeStyle;rounded=0;orthogonalLoop=1;jettySize=auto;html=1;fontSize=11;labelBackgroundColor=none;strokeColor=#457B9D;fontColor=default;" edge="1" parent="1" source="i72SBvzSJJMvw3akRcvv-10" target="i72SBvzSJJMvw3akRcvv-12">
          <mxGeometry relative="1" as="geometry" />
        </mxCell>
        <mxCell id="i72SBvzSJJMvw3akRcvv-10" value="&lt;font style=&quot;font-size: 11px;&quot;&gt;Analyst Paper With Prisma Method&lt;/font&gt;" style="whiteSpace=wrap;html=1;labelBackgroundColor=none;fillColor=#A8DADC;strokeColor=#457B9D;fontColor=#1D3557;" vertex="1" parent="1">
          <mxGeometry x="240" y="370" width="120" height="60" as="geometry" />
        </mxCell>
        <mxCell id="i72SBvzSJJMvw3akRcvv-15" value="" style="edgeStyle=orthogonalEdgeStyle;rounded=0;orthogonalLoop=1;jettySize=auto;html=1;fontSize=11;labelBackgroundColor=none;strokeColor=#457B9D;fontColor=default;" edge="1" parent="1" source="i72SBvzSJJMvw3akRcvv-12" target="i72SBvzSJJMvw3akRcvv-14">
          <mxGeometry relative="1" as="geometry" />
        </mxCell>
        <mxCell id="i72SBvzSJJMvw3akRcvv-12" value="Step 1 : Defining Eligibility Criteria" style="whiteSpace=wrap;html=1;labelBackgroundColor=none;fillColor=#A8DADC;strokeColor=#457B9D;fontColor=#1D3557;" vertex="1" parent="1">
          <mxGeometry x="240" y="460" width="120" height="60" as="geometry" />
        </mxCell>
        <mxCell id="i72SBvzSJJMvw3akRcvv-17" value="" style="edgeStyle=orthogonalEdgeStyle;rounded=0;orthogonalLoop=1;jettySize=auto;html=1;fontSize=11;labelBackgroundColor=none;strokeColor=#457B9D;fontColor=default;" edge="1" parent="1" source="i72SBvzSJJMvw3akRcvv-14" target="i72SBvzSJJMvw3akRcvv-16">
          <mxGeometry relative="1" as="geometry" />
        </mxCell>
        <mxCell id="i72SBvzSJJMvw3akRcvv-14" value="Step 2 : Defining Information Sources" style="whiteSpace=wrap;html=1;labelBackgroundColor=none;fillColor=#A8DADC;strokeColor=#457B9D;fontColor=#1D3557;" vertex="1" parent="1">
          <mxGeometry x="240" y="550" width="120" height="60" as="geometry" />
        </mxCell>
        <mxCell id="i72SBvzSJJMvw3akRcvv-19" value="" style="edgeStyle=orthogonalEdgeStyle;rounded=0;orthogonalLoop=1;jettySize=auto;html=1;fontSize=11;labelBackgroundColor=none;strokeColor=#457B9D;fontColor=default;" edge="1" parent="1" source="i72SBvzSJJMvw3akRcvv-16" target="i72SBvzSJJMvw3akRcvv-18">
          <mxGeometry relative="1" as="geometry" />
        </mxCell>
        <mxCell id="i72SBvzSJJMvw3akRcvv-16" value="Step 3 : Literature Selection" style="whiteSpace=wrap;html=1;labelBackgroundColor=none;fillColor=#A8DADC;strokeColor=#457B9D;fontColor=#1D3557;" vertex="1" parent="1">
          <mxGeometry x="400" y="550" width="120" height="60" as="geometry" />
        </mxCell>
        <mxCell id="i72SBvzSJJMvw3akRcvv-23" value="" style="edgeStyle=orthogonalEdgeStyle;rounded=0;orthogonalLoop=1;jettySize=auto;html=1;fontSize=11;labelBackgroundColor=none;strokeColor=#457B9D;fontColor=default;" edge="1" parent="1" source="i72SBvzSJJMvw3akRcvv-18" target="i72SBvzSJJMvw3akRcvv-22">
          <mxGeometry relative="1" as="geometry" />
        </mxCell>
        <mxCell id="i72SBvzSJJMvw3akRcvv-18" value="Step 4 : Data collection" style="whiteSpace=wrap;html=1;labelBackgroundColor=none;fillColor=#A8DADC;strokeColor=#457B9D;fontColor=#1D3557;" vertex="1" parent="1">
          <mxGeometry x="400" y="450" width="120" height="60" as="geometry" />
        </mxCell>
        <mxCell id="i72SBvzSJJMvw3akRcvv-25" value="" style="edgeStyle=orthogonalEdgeStyle;rounded=0;orthogonalLoop=1;jettySize=auto;html=1;fontSize=9;labelBackgroundColor=none;strokeColor=#457B9D;fontColor=default;" edge="1" parent="1" source="i72SBvzSJJMvw3akRcvv-22" target="i72SBvzSJJMvw3akRcvv-24">
          <mxGeometry relative="1" as="geometry" />
        </mxCell>
        <mxCell id="i72SBvzSJJMvw3akRcvv-22" value="&lt;div&gt;&lt;font style=&quot;font-size: 9px;&quot;&gt;Result : Article Type, Name,Year, &lt;br&gt;&lt;/font&gt;&lt;/div&gt;&lt;div&gt;&lt;font style=&quot;font-size: 9px;&quot;&gt;Keyword, Region, &lt;br&gt;&lt;/font&gt;&lt;/div&gt;&lt;div&gt;&lt;font style=&quot;font-size: 9px;&quot;&gt;Rearch Methodology&lt;/font&gt;&lt;/div&gt;" style="shape=parallelogram;perimeter=parallelogramPerimeter;whiteSpace=wrap;html=1;fixedSize=1;labelBackgroundColor=none;fillColor=#A8DADC;strokeColor=#457B9D;fontColor=#1D3557;" vertex="1" parent="1">
          <mxGeometry x="555" y="450" width="120" height="60" as="geometry" />
        </mxCell>
        <mxCell id="i72SBvzSJJMvw3akRcvv-24" value="Finish" style="ellipse;whiteSpace=wrap;html=1;labelBackgroundColor=none;fillColor=#A8DADC;strokeColor=#457B9D;fontColor=#1D3557;" vertex="1" parent="1">
          <mxGeometry x="575" y="565" width="80" height="30" as="geometry" />
        </mxCell>
      </root>
    </mxGraphModel>
  </diagram>
</mxfile>
